<svg width="24" height="24" viewBox="0 0 24 24" fill="none" xmlns="http://www.w3.org/2000/svg">
<g clip-path="url(#clip0_144_2)">
<path d="M22.9079 13.4323C22.6482 15.4123 21.8545 17.2843 20.6117 18.8476C19.369 20.4108 17.7242 21.6062 15.8537 22.3057C13.9832 23.0051 11.9575 23.1822 9.99404 22.818C8.03054 22.4537 6.20323 21.5618 4.70809 20.238C3.21295 18.9141 2.10639 17.2082 1.50707 15.3033C0.907754 13.3983 0.838296 11.3661 1.30615 9.42471C1.774 7.48328 2.76151 5.70583 4.16276 4.28297C5.56402 2.86012 7.32617 1.84555 9.26022 1.34806C14.6217 -0.0270158 20.1715 2.73277 22.2203 7.87557" stroke="#202020" stroke-width="2" stroke-linecap="round" stroke-linejoin="round"/>
<path d="M22.9999 1.00024V7.87564H16.1245" stroke="#202020" stroke-width="2" stroke-linecap="round" stroke-linejoin="round"/>
</g>
<defs>
<clipPath id="clip0_144_2">
<rect width="24" height="24" fill="white"/>
</clipPath>
</defs>
</svg>
